<svg width="24" height="24" viewBox="0 0 24 24" fill="none" xmlns="http://www.w3.org/2000/svg">
<path d="M11.9219 3.01074C14.0226 3.11506 16.0164 3.99492 17.5107 5.48926C19.1048 7.08332 20 9.24566 20 11.5C20 13.4247 19.345 15.2803 18.1621 16.7744L20.6797 19.293C21.0702 19.6835 21.0702 20.3165 20.6797 20.707C20.2891 21.0974 19.6561 21.0975 19.2656 20.707L16.7441 18.1855C15.2552 19.3535 13.4118 20 11.5 20C9.24566 20 7.08332 19.1048 5.48926 17.5107C3.8952 15.9167 3 13.7543 3 11.5C3 9.24566 3.8952 7.08332 5.48926 5.48926C7.08332 3.8952 9.24566 3 11.5 3L11.9219 3.01074ZM11.5 5C9.77609 5 8.12231 5.68433 6.90332 6.90332C5.68433 8.12231 5 9.77609 5 11.5L5.00781 11.8223C5.0875 13.4288 5.76051 14.9539 6.90332 16.0967C8.12231 17.3157 9.77609 18 11.5 18C13.2239 18 14.8777 17.3157 16.0967 16.0967C17.3157 14.8777 18 13.2239 18 11.5C18 9.77609 17.3157 8.12231 16.0967 6.90332C14.9539 5.76051 13.4288 5.0875 11.8223 5.00781L11.5 5Z" fill="#666F7F"/>
</svg>
