<svg width="24" height="24" viewBox="0 0 24 24" fill="none" xmlns="http://www.w3.org/2000/svg">
<path d="M10.4727 3.06445C10.2069 3.7215 10.0444 4.43157 10.0078 5.1748C8.84189 5.4497 7.76406 6.04258 6.90332 6.90332C5.68433 8.12231 5 9.77609 5 11.5L5.00781 11.8223C5.0875 13.4288 5.76051 14.9539 6.90332 16.0967C8.12231 17.3157 9.77609 18 11.5 18C13.2239 18 14.8777 17.3157 16.0967 16.0967C17.2388 14.9546 17.9109 13.4307 17.9912 11.8252C18.708 11.6569 19.378 11.3701 19.9814 10.9863C19.9918 11.1569 20 11.3281 20 11.5C20 13.4247 19.345 15.2803 18.1621 16.7744L20.6797 19.293C21.0702 19.6835 21.0702 20.3165 20.6797 20.707C20.2892 21.0974 19.6561 21.0975 19.2656 20.707L16.7441 18.1855C15.2552 19.3535 13.4118 20 11.5 20C9.24566 20 7.08332 19.1048 5.48926 17.5107C3.8952 15.9167 3 13.7543 3 11.5C3 9.24566 3.8952 7.08332 5.48926 5.48926C6.83918 4.13934 8.5969 3.29277 10.4727 3.06445Z" fill="#666F7F"/>
<path d="M21.9243 2.76446C21.9738 2.68512 22 2.5935 22 2.5C22.0001 2.39566 21.9675 2.29392 21.9068 2.20905C21.8461 2.12417 21.7603 2.06041 21.6615 2.02671L21.1481 1.85178L20.9731 1.33901L20.9491 1.28004C20.9056 1.19115 20.8367 1.11719 20.751 1.06752C20.6654 1.01785 20.567 0.994703 20.4682 1.00102C20.3694 1.00734 20.2747 1.04283 20.1961 1.103C20.1175 1.16317 20.0586 1.24531 20.0267 1.33901L19.8518 1.85228L19.3388 2.02721L19.2803 2.0512C19.1914 2.09466 19.1174 2.16354 19.0677 2.2491C19.0179 2.33466 18.9947 2.43305 19.001 2.53181C19.0073 2.63056 19.0427 2.72523 19.1029 2.80383C19.163 2.88242 19.2451 2.9414 19.3388 2.97329L19.8523 3.14822L20.0272 3.66099L20.0512 3.71996C20.0948 3.80885 20.1637 3.88281 20.2493 3.93248C20.3349 3.98215 20.4334 4.0053 20.5322 3.99898C20.631 3.99266 20.7256 3.95717 20.8042 3.897C20.8828 3.83683 20.9418 3.75469 20.9736 3.66099L21.1486 3.14772L21.6615 2.97279L21.72 2.9488C21.804 2.90766 21.8748 2.8438 21.9243 2.76446Z" fill="#666F7F"/>
<path d="M15.2948 9.79806C15.5063 9.93004 15.7507 10 16 10C16.2782 10.0002 16.5495 9.91323 16.7759 9.75137C17.0022 9.5895 17.1722 9.36084 17.2621 9.09744L17.7286 7.72828L19.096 7.26167L19.2532 7.19767C19.4903 7.08161 19.6875 6.89777 19.8199 6.66945C19.9524 6.44114 20.0141 6.17863 19.9973 5.91519C19.9804 5.65175 19.8858 5.39924 19.7253 5.18967C19.5649 4.9801 19.3458 4.82289 19.096 4.73797L17.7272 4.27136L17.2608 2.90353L17.1968 2.74755C17.0809 2.51042 16.8972 2.31305 16.6691 2.18044C16.4409 2.04784 16.1785 1.98597 15.9152 2.00267C15.6518 2.01938 15.3994 2.11391 15.1898 2.27428C14.9802 2.43465 14.8229 2.65365 14.7379 2.90353L14.2714 4.27269L12.904 4.7393L12.7468 4.8033C12.5097 4.91936 12.3125 5.1032 12.1801 5.33152C12.0476 5.55983 11.9859 5.82234 12.0027 6.08578C12.0196 6.34922 12.1142 6.60172 12.2747 6.8113C12.4351 7.02087 12.6542 7.17808 12.904 7.263L14.2728 7.72961L14.7392 9.09744L14.8032 9.25342C14.9129 9.47739 15.0832 9.66609 15.2948 9.79806Z" fill="#666F7F"/>
</svg>
